<svg xmlns="http://www.w3.org/2000/svg" width="68.19mm" height="66.1mm" viewBox="0 0 193.3 187.36"><path d="M177.8,0H55.51A15.56,15.56,0,0,0,40,15.51V135H177.8a15.55,15.55,0,0,0,15.5-15.51v-104A15.55,15.55,0,0,0,177.8,0Z" fill="#0073b3"/><path d="M137.8,0H15.51A15.56,15.56,0,0,0,0,15.51V135H137.8a15.55,15.55,0,0,0,15.5-15.51v-104A15.55,15.55,0,0,0,137.8,0Z" fill="#393b41"/><path d="M37.68,27a10.66,10.66,0,0,1-3.16,7.85A10.39,10.39,0,0,1,26.85,38a10.44,10.44,0,0,1-7.64-3.18A10.61,10.61,0,0,1,16,27a10.47,10.47,0,0,1,3.19-7.71,10.44,10.44,0,0,1,7.64-3.18,10.39,10.39,0,0,1,7.67,3.18A10.52,10.52,0,0,1,37.68,27Zm-.58,91.24H16.53V43.61H37.1Z" fill="#fff"/><path d="M77,27a10.7,10.7,0,0,1-3.16,7.85,10.8,10.8,0,0,1-15.31,0A10.62,10.62,0,0,1,55.34,27a10.48,10.48,0,0,1,3.2-7.71,10.8,10.8,0,0,1,15.31,0A10.56,10.56,0,0,1,77,27Zm-.58,91.24H55.86V43.61H76.43Z" fill="#fff"/><path d="M137,56.51H117.37V94.77c0,3.88.64,6.74,1.93,8.56s3.78,2.72,7.48,2.72a30.06,30.06,0,0,0,5.09-.42,35.33,35.33,0,0,0,4.52-1.07v11.67a32.79,32.79,0,0,1-8.1,2,70.89,70.89,0,0,1-9.44.65c-6.8,0-12.16-2.2-16.12-6.58S96.8,101.62,96.8,93.4v-37H88V45.75l9.61-.52,6.89-24.84h12.9V45.1H137Z" fill="#fff"/><path d="M1.19,165.75V154H3.35v11.76Z" fill="#393b41"/><path d="M9.14,165.93a6.36,6.36,0,0,1-3.63-1.07l.88-1.59a4.63,4.63,0,0,0,2.66.89c.91,0,1.94-.37,1.94-1.35,0-1.68-2.85-2-4.28-3.59a3,3,0,0,1-.77-2.11c0-1.75,1.37-3.23,3.84-3.23a6,6,0,0,1,2.89.66l0,1.93a5.62,5.62,0,0,0-2.74-.82c-1,0-1.7.41-1.7,1.19,0,2.18,5.09,2.06,5.09,5.72C13.28,164.63,11.46,165.93,9.14,165.93Z" fill="#393b41"/><path d="M23.28,155.79H20.06v10H17.88v-10H14.47V154h9.32Z" fill="#393b41"/><path d="M25.38,165.75V154h2.16v11.76Z" fill="#393b41"/><path d="M38.17,155.79H35v10H32.78v-10H29.37V154h9.31Z" fill="#393b41"/><path d="M48.88,164.63a5.11,5.11,0,0,1-3.79,1.3,5.05,5.05,0,0,1-3.66-1.16,4.57,4.57,0,0,1-1.16-3.34V154h2.16v7.3a3,3,0,0,0,.7,2.07,2.65,2.65,0,0,0,2,.73,2.84,2.84,0,0,0,2.14-.73,2.74,2.74,0,0,0,.63-2V154h2.16v7.33A4.58,4.58,0,0,1,48.88,164.63Z" fill="#393b41"/><path d="M60.72,155.79H57.5v10H55.33v-10H51.91V154h9.32Z" fill="#393b41"/><path d="M71.75,164.23A6,6,0,0,1,61.41,160a6.15,6.15,0,0,1,1.7-4.39,6.41,6.41,0,0,1,8.83.11,6.54,6.54,0,0,1-.19,8.53Zm-4.34-8.55c-2.2,0-3.73,1.59-3.73,4.23s1.53,4.25,3.73,4.25,3.71-1.59,3.71-4.25S69.66,155.68,67.41,155.68Z" fill="#393b41"/><path d="M80.23,165.75V154h2.16v11.76Z" fill="#393b41"/><path d="M93,155.79H89.8v10H87.62v-10H84.21V154h9.32Z" fill="#393b41"/><path d="M101.21,165.75l-1.16-2.94h-4.2l-1.09,2.94H92.64l4.57-11.82h1.57l4.73,11.82Zm-2.79-7.41a11.48,11.48,0,0,1-.44-1.46h0a9.08,9.08,0,0,1-.43,1.43l-1,2.73h2.86Z" fill="#393b41"/><path d="M105.21,165.75V154h2.16v9.94h4.21v1.82Z" fill="#393b41"/><path d="M113.28,165.75V154h2.16v11.76Z" fill="#393b41"/><path d="M125.72,165.75l-1.16-2.94h-4.19l-1.09,2.94h-2.13l4.57-11.82h1.57L128,165.75Zm-2.78-7.41a11.77,11.77,0,0,1-.45-1.46h0a9.08,9.08,0,0,1-.43,1.43L121,161h2.85Z" fill="#393b41"/><path d="M138.34,165.75,133,158.86c-.5-.66-.84-1.11-1.16-1.61h0c0,.4,0,1,0,1.57v6.93h-2.16V154h2.2l5.12,6.62a15.12,15.12,0,0,1,1.16,1.64h0c0-.52,0-1.19,0-1.71V154h2.14v11.76Z" fill="#393b41"/><path d="M152.88,164.23A6,6,0,0,1,142.54,160a6.15,6.15,0,0,1,1.7-4.39,6.41,6.41,0,0,1,8.83.11,6.54,6.54,0,0,1-.19,8.53Zm-4.34-8.55c-2.2,0-3.73,1.59-3.73,4.23s1.53,4.25,3.73,4.25,3.71-1.59,3.71-4.25S150.79,155.68,148.54,155.68Z" fill="#393b41"/><path d="M4.62,187.18H1.19V175.41H4.76c4.27,0,6.52,2.34,6.52,5.79S8.78,187.18,4.62,187.18Zm.09-10H3.35v8.13H4.73c3.08,0,4.24-2,4.24-4.13C9,178.88,7.56,177.23,4.71,177.23Z" fill="#393b41"/><path d="M13.47,187.18V175.41h2.16v11.77Z" fill="#393b41"/><path d="M29.83,177.22H26.61v10H24.44v-10H21v-1.81h9.31Z" fill="#393b41"/><path d="M31.93,187.18V175.41h6.56l-.59,1.81H34.09v3.05H37.9v1.8H34.09v3.3h4.4v1.81Z" fill="#393b41"/><path d="M46.15,187.36a5.62,5.62,0,0,1-5.93-6,6,6,0,0,1,6.37-6.1,6.53,6.53,0,0,1,3,.64v2a5.58,5.58,0,0,0-3-.84,4.21,4.21,0,0,0-.17,8.41,6,6,0,0,0,2.9-.78l.59,1.55A7.3,7.3,0,0,1,46.15,187.36Z" fill="#393b41"/><path d="M60.61,187.18l-5.32-6.89c-.5-.66-.84-1.11-1.16-1.61h0c0,.39,0,1,0,1.57v6.93H52V175.41h2.2L59.3,182a13.82,13.82,0,0,1,1.16,1.64h0c0-.52,0-1.2,0-1.72v-6.55h2.15v11.77Z" fill="#393b41"/><path d="M75.14,185.66a6.51,6.51,0,0,1-8.48.25,5.89,5.89,0,0,1-1.86-4.5A6.15,6.15,0,0,1,66.5,177a6.42,6.42,0,0,1,8.84.11,6.55,6.55,0,0,1-.2,8.53Zm-4.34-8.55c-2.19,0-3.73,1.59-3.73,4.23s1.54,4.25,3.73,4.25,3.72-1.59,3.72-4.25S73.05,177.11,70.8,177.11Z" fill="#393b41"/><path d="M79,187.18V175.41h2.16v10h4.21v1.82Z" fill="#393b41"/><path d="M96.87,185.66a6.51,6.51,0,0,1-8.48.25,5.89,5.89,0,0,1-1.86-4.5,6.15,6.15,0,0,1,1.7-4.39,6.42,6.42,0,0,1,8.84.11,6.55,6.55,0,0,1-.2,8.53Zm-4.34-8.55c-2.19,0-3.73,1.59-3.73,4.23s1.54,4.25,3.73,4.25,3.71-1.59,3.71-4.25S94.78,177.11,92.53,177.11Z" fill="#393b41"/><path d="M106.14,187.36a5.67,5.67,0,0,1-6-5.93c0-3.5,2.63-6.12,6.55-6.12a10.14,10.14,0,0,1,3.47.6l0,2a7,7,0,0,0-3.21-.84c-3.09,0-4.41,1.89-4.41,4.16a4,4,0,0,0,4.12,4.32,4.75,4.75,0,0,0,1.86-.32v-4h2.16v5A9.57,9.57,0,0,1,106.14,187.36Z" fill="#393b41"/><path d="M113.26,187.18V175.41h2.16v11.77Z" fill="#393b41"/><path d="M125.7,187.18l-1.16-3h-4.19l-1.09,3h-2.12l4.57-11.82h1.57L128,187.18Zm-2.78-7.41a11.35,11.35,0,0,1-.45-1.47h0a9.73,9.73,0,0,1-.42,1.43l-1,2.73h2.86Z" fill="#393b41"/><path d="M184.36,104.5l-5,2v7l5,1.83v3.57l-19.86-7.68v-2.64l19.86-8Zm-12.45,4.68a20.84,20.84,0,0,1-2.46.75v0a15.74,15.74,0,0,1,2.4.72l4.59,1.71v-4.8Z" fill="#fff"/><path d="M184.36,81.49H172.6c-.72,0-1.35,0-2.13-.06v0a14.62,14.62,0,0,1,2,1.2l6.36,4v1.8L172.42,93a11.07,11.07,0,0,1-1.95,1.2v.06c.81-.06,1.44-.06,2-.06h11.85v3.63H164.59V94.39l7.92-5.46a20.84,20.84,0,0,1,2.1-1.32v-.06a17.68,17.68,0,0,1-2.19-1.23l-7.83-5V77.86h19.77Z" fill="#fff"/><path d="M184.36,73.27H164.59V69.64h19.77Z" fill="#fff"/></svg>